<?xml version="1.0" encoding="UTF-8" standalone="no"?>
<!-- Created with Inkscape (http://www.inkscape.org/) -->

<svg
   xmlns:dc="http://purl.org/dc/elements/1.1/"
   xmlns:cc="http://creativecommons.org/ns#"
   xmlns:rdf="http://www.w3.org/1999/02/22-rdf-syntax-ns#"
   xmlns:svg="http://www.w3.org/2000/svg"
   xmlns="http://www.w3.org/2000/svg"
   xmlns:sodipodi="http://sodipodi.sourceforge.net/DTD/sodipodi-0.dtd"
   xmlns:inkscape="http://www.inkscape.org/namespaces/inkscape"
   width="64"
   height="64"
   viewBox="0 0 16.933333 16.933334"
   version="1.1"
   id="svg8"
   inkscape:version="0.92.4 (5da689c313, 2019-01-14)"
   sodipodi:docname="AddRidgesToRefSketch.svg">
  <defs
     id="defs2" />
  <sodipodi:namedview
     id="base"
     pagecolor="#ffffff"
     bordercolor="#666666"
     borderopacity="1.0"
     inkscape:pageopacity="0.0"
     inkscape:pageshadow="2"
     inkscape:zoom="7.919596"
     inkscape:cx="9.2808543"
     inkscape:cy="18.932023"
     inkscape:document-units="mm"
     inkscape:current-layer="layer1"
     showgrid="false"
     units="px"
     inkscape:window-width="1920"
     inkscape:window-height="1017"
     inkscape:window-x="-8"
     inkscape:window-y="-8"
     inkscape:window-maximized="1" />
  <metadata
     id="metadata5">
    <rdf:RDF>
      <cc:Work
         rdf:about="">
        <dc:format>image/svg+xml</dc:format>
        <dc:type
           rdf:resource="http://purl.org/dc/dcmitype/StillImage" />
        <dc:title />
      </cc:Work>
    </rdf:RDF>
  </metadata>
  <g
     inkscape:label="Layer 1"
     inkscape:groupmode="layer"
     id="layer1"
     transform="translate(0,-280.06665)">
    <path
       style="fill:none;stroke:#302b00;stroke-width:0.63499999;stroke-linecap:round;stroke-linejoin:round;stroke-miterlimit:4;stroke-dasharray:none;stroke-opacity:1"
       d="m 7.2162772,296.39863 4.4767668,-5.41221 4.911075,0.20045"
       id="path832"
       inkscape:connector-curvature="0" />
    <path
       style="fill:none;stroke:#302b00;stroke-width:0.63499999;stroke-linecap:round;stroke-linejoin:round;stroke-miterlimit:4;stroke-dasharray:none;stroke-opacity:1"
       d="m 0.93544333,287.17783 4.47676667,-5.41221 4.911075,0.46772"
       id="path832-0"
       inkscape:connector-curvature="0"
       sodipodi:nodetypes="ccc" />
    <path
       style="fill:none;stroke:#302b00;stroke-width:0.63499999;stroke-linecap:round;stroke-linejoin:round;stroke-miterlimit:4;stroke-dasharray:none;stroke-opacity:1"
       d="m 0.93544331,287.17783 6.28083389,9.2208"
       id="path851"
       inkscape:connector-curvature="0" />
    <path
       style="fill:none;stroke:#302b00;stroke-width:0.63499999;stroke-linecap:round;stroke-linejoin:round;stroke-miterlimit:4;stroke-dasharray:none;stroke-opacity:1"
       d="m 10.323285,282.23334 6.280834,8.95353"
       id="path853"
       inkscape:connector-curvature="0" />
    <path
       style="fill:#fce94f;fill-opacity:1;stroke:none;stroke-width:0.21428572;stroke-linecap:round;stroke-linejoin:round;stroke-miterlimit:4;stroke-dasharray:none;stroke-dashoffset:0;stroke-opacity:1"
       d="M 16.250373,43.33144 C 10.13841,34.358305 5.1377135,26.988548 5.1377135,26.954205 c 0,-0.09345 15.1408805,-18.3812618 15.2182525,-18.3812618 0.05904,0 21.666259,31.6439568 22.096388,32.3603558 l 0.171785,0.286114 -7.483274,9.056229 c -4.115801,4.980926 -7.549549,9.126961 -7.630553,9.213411 C 27.371865,59.636809 26.696679,58.66794 16.250373,43.33144 Z"
       id="path855"
       inkscape:connector-curvature="0"
       transform="matrix(0.26458333,0,0,0.26458333,0,280.06665)" />
    <path
       style="fill:#edd400;fill-opacity:1;stroke:none;stroke-width:0.21428572;stroke-linecap:round;stroke-linejoin:round;stroke-miterlimit:4;stroke-dasharray:none;stroke-dashoffset:0;stroke-opacity:1"
       d="m 52.414499,40.379132 c -4.149554,-0.172038 -7.548733,-0.317337 -7.553731,-0.322886 -0.005,-0.0055 -4.920032,-7.222142 -10.922293,-16.036874 C 24.220225,9.7474576 23.048047,7.9899494 23.233278,7.9685066 23.440122,7.9445616 38.315253,9.3496546 38.35169,9.3965797 38.44327,9.5145151 60.010295,40.28414 60.131838,40.470264 c 0.155068,0.237461 0.154865,0.245143 -0.0062,0.233601 -0.09159,-0.0066 -3.561608,-0.152693 -7.711161,-0.324733 z"
       id="path857"
       inkscape:connector-curvature="0"
       transform="matrix(0.26458333,0,0,0.26458333,0,280.06665)" />
    <path
       style="fill:none;stroke:#ef2929;stroke-width:1.05833333;stroke-linecap:round;stroke-linejoin:round;stroke-miterlimit:4;stroke-dasharray:none;stroke-opacity:1"
       d="M 11.693044,290.98642 5.41221,281.76562"
       id="path849"
       inkscape:connector-curvature="0" />
  </g>
</svg>
