<?xml version="1.0" encoding="UTF-8" standalone="no"?>
<!-- Created with Inkscape (http://www.inkscape.org/) -->

<svg
   xmlns:dc="http://purl.org/dc/elements/1.1/"
   xmlns:cc="http://creativecommons.org/ns#"
   xmlns:rdf="http://www.w3.org/1999/02/22-rdf-syntax-ns#"
   xmlns:svg="http://www.w3.org/2000/svg"
   xmlns="http://www.w3.org/2000/svg"
   xmlns:xlink="http://www.w3.org/1999/xlink"
   xmlns:sodipodi="http://sodipodi.sourceforge.net/DTD/sodipodi-0.dtd"
   xmlns:inkscape="http://www.inkscape.org/namespaces/inkscape"
   version="1.0"
   x="0.0000000"
   y="0.0000000"
   width="64"
   height="64"
   id="svg11300"
   sodipodi:version="0.32"
   inkscape:version="0.92.4 5da689c313, 2019-01-14"
   sodipodi:docname="Roof.svg">
  <metadata
     id="metadata66">
    <rdf:RDF>
      <cc:Work
         rdf:about="">
        <dc:format>image/svg+xml</dc:format>
        <dc:type
           rdf:resource="http://purl.org/dc/dcmitype/StillImage" />
        <dc:title />
        <dc:contributor>
          <cc:Agent>
            <dc:title>Corey Woodworth</dc:title>
          </cc:Agent>
        </dc:contributor>
        <cc:license
           rdf:resource="http://creativecommons.org/licenses/by-sa/2.0/" />
        <dc:source>http://jimmac.musichall.cz</dc:source>
        <dc:creator>
          <cc:Agent>
            <dc:title>Jakub Steiner</dc:title>
          </cc:Agent>
        </dc:creator>
        <dc:subject>
          <rdf:Bag>
            <rdf:li>new</rdf:li>
            <rdf:li>insert</rdf:li>
            <rdf:li>window</rdf:li>
          </rdf:Bag>
        </dc:subject>
      </cc:Work>
      <cc:License
         rdf:about="http://creativecommons.org/licenses/by-sa/2.0/">
        <cc:permits
           rdf:resource="http://web.resource.org/cc/Reproduction" />
        <cc:permits
           rdf:resource="http://web.resource.org/cc/Distribution" />
        <cc:requires
           rdf:resource="http://web.resource.org/cc/Notice" />
        <cc:requires
           rdf:resource="http://web.resource.org/cc/Attribution" />
        <cc:permits
           rdf:resource="http://web.resource.org/cc/DerivativeWorks" />
        <cc:requires
           rdf:resource="http://web.resource.org/cc/ShareAlike" />
      </cc:License>
    </rdf:RDF>
  </metadata>
  <sodipodi:namedview
     inkscape:window-height="824"
     inkscape:window-width="1600"
     inkscape:pageshadow="2"
     inkscape:pageopacity="0.0"
     borderopacity="1.0"
     bordercolor="#666666"
     pagecolor="#ffffff"
     id="base"
     inkscape:zoom="7.9999996"
     inkscape:cx="31.060133"
     inkscape:cy="34.778719"
     inkscape:window-x="0"
     inkscape:window-y="0"
     inkscape:current-layer="svg11300"
     showgrid="true"
     inkscape:snap-bbox="true"
     inkscape:snap-nodes="true"
     inkscape:window-maximized="1"
     inkscape:snap-grids="false"
     inkscape:snap-global="true">
    <inkscape:grid
       type="xygrid"
       id="grid3016"
       empspacing="2"
       visible="true"
       enabled="true"
       snapvisiblegridlinesonly="true" />
  </sodipodi:namedview>
  <defs
     id="defs3">
    <marker
       inkscape:stockid="Arrow2Sstart"
       orient="auto"
       refY="0.0"
       refX="0.0"
       id="Arrow2Sstart"
       style="overflow:visible"
       inkscape:isstock="true">
      <path
         id="path1621"
         style="fill-rule:evenodd;stroke-width:0.625;stroke-linejoin:round;stroke:#a40000;stroke-opacity:1;fill:#280000;fill-opacity:1"
         d="M 8.7185878,4.0337352 L -2.2072895,0.016013256 L 8.7185884,-4.0017078 C 6.9730900,-1.6296469 6.9831476,1.6157441 8.7185878,4.0337352 z "
         transform="scale(0.3) translate(-2.3,0)" />
    </marker>
    <marker
       inkscape:stockid="Arrow1Send"
       orient="auto"
       refY="0.0"
       refX="0.0"
       id="marker1872"
       style="overflow:visible;"
       inkscape:isstock="true">
      <path
         id="path1606"
         d="M 0.0,0.0 L 5.0,-5.0 L -12.5,0.0 L 5.0,5.0 L 0.0,0.0 z "
         style="fill-rule:evenodd;stroke:#000000;stroke-width:1pt;stroke-opacity:1;fill:#000000;fill-opacity:1"
         transform="scale(0.2) rotate(180) translate(6,0)" />
    </marker>
    <marker
       inkscape:stockid="Arrow2Send"
       orient="auto"
       refY="0.0"
       refX="0.0"
       id="Arrow2Send"
       style="overflow:visible;"
       inkscape:isstock="true">
      <path
         id="path1624"
         style="fill-rule:evenodd;stroke-width:0.625;stroke-linejoin:round;stroke:#a40000;stroke-opacity:1;fill:#280000;fill-opacity:1"
         d="M 8.7185878,4.0337352 L -2.2072895,0.016013256 L 8.7185884,-4.0017078 C 6.9730900,-1.6296469 6.9831476,1.6157441 8.7185878,4.0337352 z "
         transform="scale(0.3) rotate(180) translate(-2.3,0)" />
    </marker>
    <marker
       inkscape:stockid="Arrow2Mend"
       orient="auto"
       refY="0.0"
       refX="0.0"
       id="Arrow2Mend"
       style="overflow:visible;"
       inkscape:isstock="true">
      <path
         id="path1618"
         style="fill-rule:evenodd;stroke-width:0.625;stroke-linejoin:round;stroke:#000000;stroke-opacity:1;fill:#000000;fill-opacity:1"
         d="M 8.7185878,4.0337352 L -2.2072895,0.016013256 L 8.7185884,-4.0017078 C 6.9730900,-1.6296469 6.9831476,1.6157441 8.7185878,4.0337352 z "
         transform="scale(0.6) rotate(180) translate(0,0)" />
    </marker>
    <marker
       inkscape:stockid="Arrow1Sstart"
       orient="auto"
       refY="0.0"
       refX="0.0"
       id="marker1861"
       style="overflow:visible"
       inkscape:isstock="true">
      <path
         id="path1859"
         d="M 0.0,0.0 L 5.0,-5.0 L -12.5,0.0 L 5.0,5.0 L 0.0,0.0 z "
         style="fill-rule:evenodd;stroke:#000000;stroke-width:1pt;stroke-opacity:1;fill:#000000;fill-opacity:1"
         transform="scale(0.2) translate(6,0)" />
    </marker>
    <marker
       inkscape:stockid="Arrow1Lstart"
       orient="auto"
       refY="0.0"
       refX="0.0"
       id="marker1857"
       style="overflow:visible"
       inkscape:isstock="true">
      <path
         id="path1591"
         d="M 0.0,0.0 L 5.0,-5.0 L -12.5,0.0 L 5.0,5.0 L 0.0,0.0 z "
         style="fill-rule:evenodd;stroke:#000000;stroke-width:1pt;stroke-opacity:1;fill:#000000;fill-opacity:1"
         transform="scale(0.8) translate(12.5,0)" />
    </marker>
    <marker
       inkscape:stockid="Arrow1Sstart"
       orient="auto"
       refY="0.0"
       refX="0.0"
       id="marker1854"
       style="overflow:visible"
       inkscape:isstock="true">
      <path
         id="path1603"
         d="M 0.0,0.0 L 5.0,-5.0 L -12.5,0.0 L 5.0,5.0 L 0.0,0.0 z "
         style="fill-rule:evenodd;stroke:#000000;stroke-width:1pt;stroke-opacity:1;fill:#000000;fill-opacity:1"
         transform="scale(0.2) translate(6,0)" />
    </marker>
    <marker
       inkscape:stockid="Arrow1Send"
       orient="auto"
       refY="0.0"
       refX="0.0"
       id="marker4966"
       style="overflow:visible;"
       inkscape:isstock="true">
      <path
         id="path4964"
         d="M 0.0,0.0 L 5.0,-5.0 L -12.5,0.0 L 5.0,5.0 L 0.0,0.0 z "
         style="fill-rule:evenodd;stroke:#000000;stroke-width:1pt;stroke-opacity:1;fill:#000000;fill-opacity:1"
         transform="scale(0.2) rotate(180) translate(6,0)" />
    </marker>
    <marker
       inkscape:stockid="Arrow1Sstart"
       orient="auto"
       refY="0.0"
       refX="0.0"
       id="Arrow1Sstart"
       style="overflow:visible"
       inkscape:isstock="true">
      <path
         id="path4636"
         d="M 0.0,0.0 L 5.0,-5.0 L -12.5,0.0 L 5.0,5.0 L 0.0,0.0 z "
         style="fill-rule:evenodd;stroke:#34e0e2;stroke-width:1pt;stroke-opacity:0.40930236;fill:#34e0e2;fill-opacity:0.40930236"
         transform="scale(0.2) translate(6,0)" />
    </marker>
    <marker
       inkscape:stockid="Arrow1Send"
       orient="auto"
       refY="0.0"
       refX="0.0"
       id="Arrow1Send"
       style="overflow:visible;"
       inkscape:isstock="true">
      <path
         id="path4639"
         d="M 0.0,0.0 L 5.0,-5.0 L -12.5,0.0 L 5.0,5.0 L 0.0,0.0 z "
         style="fill-rule:evenodd;stroke:#34e0e2;stroke-width:1pt;stroke-opacity:0.40930236;fill:#34e0e2;fill-opacity:0.40930236"
         transform="scale(0.2) rotate(180) translate(6,0)" />
    </marker>
    <marker
       inkscape:stockid="Arrow1Lstart"
       orient="auto"
       refY="0.0"
       refX="0.0"
       id="Arrow1Lstart"
       style="overflow:visible"
       inkscape:isstock="true">
      <path
         id="path4624"
         d="M 0.0,0.0 L 5.0,-5.0 L -12.5,0.0 L 5.0,5.0 L 0.0,0.0 z "
         style="fill-rule:evenodd;stroke:#000000;stroke-width:1pt;stroke-opacity:1;fill:#000000;fill-opacity:1"
         transform="scale(0.8) translate(12.5,0)" />
    </marker>
    <linearGradient
       id="linearGradient5048">
      <stop
         style="stop-color:black;stop-opacity:0;"
         offset="0"
         id="stop5050" />
      <stop
         id="stop5056"
         offset="0.5"
         style="stop-color:black;stop-opacity:1;" />
      <stop
         style="stop-color:black;stop-opacity:0;"
         offset="1"
         id="stop5052" />
    </linearGradient>
    <linearGradient
       id="linearGradient12512">
      <stop
         style="stop-color:#ffffff;stop-opacity:1.0000000"
         offset="0.0000000"
         id="stop12513" />
      <stop
         style="stop-color:#fff520;stop-opacity:0.89108908"
         offset="0.50000000"
         id="stop12517" />
      <stop
         style="stop-color:#fff300;stop-opacity:0.0000000"
         offset="1.0000000"
         id="stop12514" />
    </linearGradient>
    <linearGradient
       id="linearGradient4816">
      <stop
         style="stop-color:#3465a4;stop-opacity:1"
         offset="0.0000000"
         id="stop4818" />
      <stop
         style="stop-color:#729fcf;stop-opacity:1"
         offset="1.0000000"
         id="stop4820" />
    </linearGradient>
    <linearGradient
       id="linearGradient4808">
      <stop
         style="stop-color:#000000;stop-opacity:1.0000000"
         offset="0.0000000"
         id="stop4810" />
      <stop
         style="stop-color:#000000;stop-opacity:0.0000000"
         offset="1.0000000"
         id="stop4812" />
    </linearGradient>
    <linearGradient
       id="linearGradient3832">
      <stop
         style="stop-color:#ffffff;stop-opacity:1"
         offset="0.0000000"
         id="stop3834" />
      <stop
         style="stop-color:#d3d7cf;stop-opacity:1"
         offset="1.0000000"
         id="stop3836" />
    </linearGradient>
    <radialGradient
       inkscape:collect="always"
       xlink:href="#linearGradient4808"
       id="radialGradient1372"
       gradientUnits="userSpaceOnUse"
       gradientTransform="matrix(1.945734,0,0,0.627274,-9.628455,24.25921)"
       cx="17.368311"
       cy="25.681942"
       fx="17.368311"
       fy="25.681942"
       r="11.799845" />
  </defs>
  <g
     id="g1293"
     transform="matrix(1.0461527,0,0,1.3624048,-1.7374755,-9.4086834)">
    <path
       inkscape:connector-curvature="0"
       id="path1263"
       d="M 34.051919,28.945624 16.726995,52.866335 11.450369,38.179723 19.980917,34.57403 18.837646,32.199547 26.664644,29.121512 25.257542,24.724324 17.694378,27.978242 16.287277,25.603761 8.1085067,29.209456 2.7439345,14.4349 20.068858,11.972475 l 0.879438,1.14327 10.201478,-1.582989 -0.527661,-1.143268 17.324925,-2.4624272 5.364569,14.6866132 -8.442603,-1.143272 3.253921,8.970269 8.530547,1.143269 5.100737,14.422779 z"
       style="fill:none;stroke:#302b00;stroke-width:2;stroke-linecap:round;stroke-linejoin:round;stroke-miterlimit:4;stroke-dasharray:none;stroke-opacity:1" />
    <path
       inkscape:connector-curvature="0"
       id="path1265"
       d="M 34.051919,28.945624 30.622113,19.359753"
       style="fill:none;stroke:#302b00;stroke-width:2;stroke-linecap:round;stroke-linejoin:round;stroke-miterlimit:4;stroke-dasharray:none;stroke-opacity:1" />
    <path
       inkscape:connector-curvature="0"
       id="path1267"
       d="M 2.7439345,14.4349 30.622113,19.359753"
       style="fill:none;stroke:#302b00;stroke-width:2;stroke-linecap:round;stroke-linejoin:round;stroke-miterlimit:4;stroke-dasharray:none;stroke-opacity:1" />
    <path
       inkscape:connector-curvature="0"
       id="path1269"
       d="M 47.947038,7.9270608 30.622113,19.359753"
       style="fill:none;stroke:#302b00;stroke-width:2;stroke-linecap:round;stroke-linejoin:round;stroke-miterlimit:4;stroke-dasharray:none;stroke-opacity:1" />
    <path
       inkscape:connector-curvature="0"
       id="path1271"
       d="m 16.726995,52.866335 17.588756,-2.550371 -1.055326,-2.8142 10.641199,-1.319157 0.615607,2.550369"
       style="fill:none;stroke:#302b00;stroke-width:2;stroke-linecap:round;stroke-linejoin:round;stroke-miterlimit:4;stroke-dasharray:none;stroke-opacity:1" />
    <path
       inkscape:connector-curvature="0"
       id="path1273"
       d="M 44.517231,48.732976 61.754209,46.006719"
       style="fill:none;stroke:#302b00;stroke-width:2;stroke-linecap:round;stroke-linejoin:round;stroke-miterlimit:4;stroke-dasharray:none;stroke-opacity:1" />
    <path
       inkscape:connector-curvature="0"
       id="path1275"
       d="m 16.969983,50.42848 c -0.0349,-0.09743 -0.991343,-2.761621 -2.12542,-5.920414 -1.134077,-3.158794 -2.049551,-5.751108 -2.034387,-5.760697 0.01516,-0.0096 1.743197,-0.734775 3.840072,-1.611525 3.887077,-1.625271 4.375001,-1.904673 4.375001,-2.505265 0,-0.161868 -0.166638,-0.64666 -0.370305,-1.077315 l -0.370305,-0.783009 3.464055,-1.36097 c 1.90523,-0.748534 3.568117,-1.463105 3.695305,-1.587936 0.365016,-0.358257 0.279961,-0.897403 -0.537744,-3.408607 -0.792606,-2.434127 -0.963396,-2.723916 -1.605375,-2.723916 -0.161559,0 -1.804342,0.646875 -3.650631,1.4375 -1.846289,0.790625 -3.405527,1.4375 -3.464973,1.4375 -0.05945,0 -0.322496,-0.366533 -0.584556,-0.814518 -0.527423,-0.901614 -0.849034,-1.18852 -1.322035,-1.179371 -0.173765,0.0034 -1.946243,0.727198 -3.93884,1.608527 L 8.716942,27.78088 6.557146,21.840468 c -1.1878878,-3.267226 -2.1411259,-5.959081 -2.1183068,-5.9819 0.049367,-0.04937 25.3285778,4.402502 25.3863378,4.470736 0.175172,0.206932 3.024755,8.450585 2.954447,8.547022 -0.05012,0.06875 -3.567167,4.934375 -7.815658,10.812501 -4.24849,5.878125 -7.770876,10.739094 -7.827525,10.802153 -0.06033,0.06716 -0.129285,0.04127 -0.166458,-0.0625 z"
       style="fill:#fce94f;fill-opacity:1;stroke:#302b00;stroke-width:0.25;stroke-linecap:round;stroke-linejoin:round;stroke-miterlimit:4;stroke-dasharray:none;stroke-opacity:1" />
    <path
       inkscape:connector-curvature="0"
       id="path1277"
       d="m 19.171082,51.3372 c 0.02292,-0.05589 3.443553,-4.796703 7.601414,-10.535128 l 7.559748,-10.433501 2.877753,1.769132 c 15.490161,9.522757 21.591876,13.301124 21.480096,13.301124 -0.124776,0 -12.359364,1.922335 -13.049971,2.05045 -0.308549,0.05724 -0.332029,0.01997 -0.538082,-0.854064 -0.268553,-1.139136 -0.530494,-1.445647 -1.23791,-1.448535 -0.289509,-0.0011 -2.860755,0.285224 -5.713881,0.636458 -3.946867,0.485878 -5.260627,0.690207 -5.493271,0.854365 -0.479454,0.338312 -0.519106,0.750501 -0.169341,1.760296 0.170545,0.492375 0.274963,0.930345 0.232042,0.973268 -0.06057,0.06057 -13.042631,2.009136 -13.486097,2.02422 -0.05729,0.002 -0.08542,-0.04219 -0.0625,-0.09808 z"
       style="fill:#edd400;fill-opacity:1;stroke:#302b00;stroke-width:0.25;stroke-linecap:round;stroke-linejoin:round;stroke-miterlimit:4;stroke-dasharray:none;stroke-opacity:1" />
    <path
       inkscape:connector-curvature="0"
       id="path1279"
       d="M 47.260211,35.836818 34.932672,28.251326 33.411217,24.00923 c -1.152747,-3.214075 -1.482318,-4.264255 -1.359961,-4.33353 0.08882,-0.05029 3.564618,-2.339391 7.723993,-5.086895 4.159376,-2.747504 7.59816,-4.9599157 7.641743,-4.9164707 0.124908,0.1245102 4.260912,11.5305047 4.202379,11.5890377 -0.02883,0.02883 -1.501639,-0.144453 -3.272914,-0.385067 -1.771276,-0.240614 -3.378785,-0.437479 -3.572242,-0.437479 -0.366344,0 -0.998965,0.597456 -0.998965,0.943437 0,0.162322 2.688331,7.687497 3.270442,9.154621 0.14415,0.363306 0.37532,0.721156 0.513712,0.795221 0.138392,0.07407 2.046391,0.374946 4.239999,0.668624 2.193607,0.293679 4.014402,0.559986 4.046211,0.591794 0.10528,0.105281 3.810755,10.640615 3.776103,10.736145 -0.01868,0.0515 -5.581359,-3.31983 -12.361506,-7.49185 z"
       style="fill:#c4a000;fill-opacity:1;stroke:#302b00;stroke-width:0.25;stroke-linecap:round;stroke-linejoin:round;stroke-miterlimit:4;stroke-dasharray:none;stroke-opacity:1" />
    <path
       inkscape:connector-curvature="0"
       id="path1281"
       d="M 19.878699,16.401419 C 14.401222,15.425118 9.8892939,14.595648 9.8521929,14.558153 c -0.037101,-0.0375 2.0819711,-0.368866 4.7090501,-0.736381 2.627078,-0.367515 4.837812,-0.690962 4.912742,-0.718771 0.07493,-0.02781 0.271804,0.147715 0.4375,0.390054 0.538438,0.787498 0.406865,0.789899 6.246936,-0.113956 5.800436,-0.897719 5.898973,-0.925985 5.966789,-1.711557 l 0.03746,-0.433948 5.510226,-0.77678 c 3.030624,-0.427229 5.527045,-0.7599622 5.5476,-0.7394066 0.02056,0.020556 -2.813403,1.9191476 -6.297687,4.2190926 -4.279474,2.824842 -6.456741,4.191175 -6.710062,4.210865 -0.20625,0.01603 -4.856573,-0.769644 -10.33405,-1.745946 z"
       style="fill:#c4a000;fill-opacity:1;stroke:#302b00;stroke-width:0.25;stroke-linecap:round;stroke-linejoin:round;stroke-miterlimit:4;stroke-dasharray:none;stroke-opacity:1" />
  </g>
</svg>
